<svg width="40" height="40" viewBox="0 0 40 40" fill="none" xmlns="http://www.w3.org/2000/svg">
<rect width="40" height="40" rx="8" fill="#FFF8DD"/>
<path opacity="0.3" d="M20 29.9999C25.5228 29.9999 30 25.5228 30 19.9999C30 14.4771 25.5228 9.99994 20 9.99994C14.4772 9.99994 10 14.4771 10 19.9999C10 25.5228 14.4772 29.9999 20 29.9999Z" fill="#F7C000"/>
<path d="M20 21.3999C20.2652 21.3999 20.5196 21.2946 20.7071 21.107C20.8946 20.9195 21 20.6651 21 20.3999V15.7399C21 15.4747 20.8946 15.2204 20.7071 15.0328C20.5196 14.8453 20.2652 14.7399 20 14.7399C19.7348 14.7399 19.4804 14.8453 19.2929 15.0328C19.1054 15.2204 19 15.4747 19 15.7399V20.3999C19 20.6651 19.1054 20.9195 19.2929 21.107C19.4804 21.2946 19.7348 21.3999 20 21.3999Z" fill="#F7C000"/>
<path d="M20 25.2599C20.6904 25.2599 21.25 24.7003 21.25 24.0099C21.25 23.3196 20.6904 22.7599 20 22.7599C19.3096 22.7599 18.75 23.3196 18.75 24.0099C18.75 24.7003 19.3096 25.2599 20 25.2599Z" fill="#F7C000"/>
</svg>
