<svg width="40" height="40" viewBox="0 0 40 40" fill="none" xmlns="http://www.w3.org/2000/svg">
<rect width="40" height="40" rx="8" fill="#FFF5F8"/>
<path opacity="0.3" d="M19.9999 29.9999C25.5228 29.9999 29.9999 25.5228 29.9999 19.9999C29.9999 14.4771 25.5228 9.99994 19.9999 9.99994C14.4771 9.99994 9.99994 14.4771 9.99994 19.9999C9.99994 25.5228 14.4771 29.9999 19.9999 29.9999Z" fill="#F1416C"/>
<path d="M19.9999 22.9999C19.801 22.9999 19.6103 22.9209 19.4696 22.7802C19.329 22.6396 19.2499 22.4488 19.2499 22.2499V21.4299C19.2406 20.9287 19.3726 20.4349 19.6308 20.0051C19.889 19.5754 20.263 19.227 20.7099 18.9999C20.9719 18.8731 21.1952 18.6785 21.3565 18.4363C21.5179 18.1941 21.6114 17.9131 21.6275 17.6225C21.6435 17.3318 21.5814 17.0423 21.4477 16.7837C21.314 16.5252 21.1135 16.3073 20.867 16.1524C20.6206 15.9976 20.3371 15.9116 20.0462 15.9033C19.7553 15.8951 19.4675 15.9648 19.2126 16.1054C18.9578 16.246 18.7452 16.4523 18.597 16.7028C18.4488 16.9533 18.3704 17.2389 18.3699 17.5299C18.3699 17.7288 18.2909 17.9196 18.1503 18.0602C18.0096 18.2009 17.8188 18.2799 17.6199 18.2799C17.421 18.2799 17.2303 18.2009 17.0896 18.0602C16.949 17.9196 16.8699 17.7288 16.8699 17.5299C16.8716 17.072 16.9734 16.6199 17.1683 16.2055C17.3631 15.791 17.6462 15.4242 17.9978 15.1308C18.3494 14.8373 18.7609 14.6243 19.2035 14.5067C19.6461 14.3891 20.1091 14.3697 20.5599 14.4499C21.1894 14.5683 21.7679 14.8758 22.2181 15.3314C22.6683 15.787 22.969 16.3691 23.0799 16.9999C23.2061 17.6741 23.1058 18.3711 22.7948 18.9824C22.4837 19.5937 21.9792 20.0851 21.3599 20.3799C21.1704 20.4831 21.0131 20.6368 20.9054 20.8239C20.7978 21.0109 20.7439 21.2242 20.7499 21.4399V22.2599C20.7473 22.4571 20.6671 22.6453 20.5268 22.7838C20.3864 22.9223 20.1971 22.9999 19.9999 22.9999Z" fill="#F1416C"/>
<path d="M19.9999 25.5899C20.4142 25.5899 20.7499 25.2541 20.7499 24.8399C20.7499 24.4257 20.4142 24.0899 19.9999 24.0899C19.5857 24.0899 19.2499 24.4257 19.2499 24.8399C19.2499 25.2541 19.5857 25.5899 19.9999 25.5899Z" fill="#F1416C"/>
</svg>
