<svg width="40" height="40" viewBox="0 0 40 40" fill="none" xmlns="http://www.w3.org/2000/svg">
<rect width="40" height="40" rx="8" fill="#E8FFF3"/>
<path opacity="0.3" d="M20 29.9999C25.5228 29.9999 30 25.5228 30 19.9999C30 14.4771 25.5228 9.99994 20 9.99994C14.4772 9.99994 10 14.4771 10 19.9999C10 25.5228 14.4772 29.9999 20 29.9999Z" fill="#47BE7D"/>
<path d="M23.26 15.4099C22.8068 15.2532 22.3264 15.191 21.8483 15.2271C21.3701 15.2632 20.9045 15.3969 20.48 15.6199C20.328 15.7077 20.1555 15.7539 19.98 15.7539C19.8045 15.7539 19.632 15.7077 19.48 15.6199C18.7169 15.2213 17.8327 15.1215 17 15.3399C16.3118 15.517 15.7019 15.9174 15.2657 16.4785C14.8296 17.0395 14.5919 17.7293 14.59 18.4399C14.59 21.8399 17.89 23.8299 19.35 24.5299C19.5626 24.6239 19.7925 24.6724 20.025 24.6724C20.2575 24.6724 20.4874 24.6239 20.7 24.5299C22.14 23.9299 25.36 22.1699 25.43 18.3599C25.4108 17.706 25.1929 17.0734 24.8052 16.5464C24.4175 16.0194 23.8786 15.623 23.26 15.4099Z" fill="#47BE7D"/>
</svg>
